<?xml version="1.0" encoding="UTF-8" standalone="no"?>
<!-- Generator: Adobe Illustrator 16.0.0, SVG Export Plug-In . SVG Version: 6.00 Build 0)  -->

<svg
   xmlns:dc="http://purl.org/dc/elements/1.1/"
   xmlns:cc="http://creativecommons.org/ns#"
   xmlns:rdf="http://www.w3.org/1999/02/22-rdf-syntax-ns#"
   xmlns:svg="http://www.w3.org/2000/svg"
   xmlns="http://www.w3.org/2000/svg"
   xmlns:sodipodi="http://sodipodi.sourceforge.net/DTD/sodipodi-0.dtd"
   xmlns:inkscape="http://www.inkscape.org/namespaces/inkscape"
   version="1.1"
   id="Ebene_1"
   x="0px"
   y="0px"
   width="148.23033"
   height="148.23172"
   viewBox="0 0 148.23033 148.23171"
   enable-background="new 0 0 841.89 595.28"
   xml:space="preserve"
   inkscape:version="0.91 r13725"
   sodipodi:docname="hallunken-head.svg"><metadata
     id="metadata79"><rdf:RDF><cc:Work
         rdf:about=""><dc:format>image/svg+xml</dc:format><dc:type
           rdf:resource="http://purl.org/dc/dcmitype/StillImage" /><dc:title></dc:title></cc:Work></rdf:RDF></metadata><defs
     id="defs77" /><sodipodi:namedview
     pagecolor="#ffffff"
     bordercolor="#666666"
     borderopacity="1"
     objecttolerance="10"
     gridtolerance="10"
     guidetolerance="10"
     inkscape:pageopacity="0"
     inkscape:pageshadow="2"
     inkscape:window-width="1317"
     inkscape:window-height="744"
     id="namedview75"
     showgrid="false"
     fit-margin-top="0"
     fit-margin-left="0"
     fit-margin-right="0"
     fit-margin-bottom="0"
     inkscape:zoom="1.13"
     inkscape:cx="86.453717"
     inkscape:cy="96.465976"
     inkscape:window-x="49"
     inkscape:window-y="24"
     inkscape:window-maximized="1"
     inkscape:current-layer="Ebene_1" /><g
     id="g5"
     transform="matrix(0.69290473,0,0,0.69290473,-81.802254,-124.84619)"><path
       stroke-miterlimit="10"
       d="m 328.983,287.142 c 0,57.414 -46.545,103.964 -103.963,103.964 -57.422,0 -103.963,-46.55 -103.963,-103.964 0,-57.418 46.541,-103.964 103.963,-103.964 57.418,0 103.963,46.546 103.963,103.964 z"
       id="path7"
       inkscape:connector-curvature="0"
       style="fill:#006837;stroke:#006837;stroke-width:6;stroke-miterlimit:10" /></g><g
     id="g65"
     transform="matrix(0.69290473,0,0,0.69290473,-81.802254,-124.84619)"><path
       d="m 281.221,207.406 c 15.787,10.264 26.671,25.879 34.032,42.968 7.875,18.28 7.808,37.222 5.764,56.658 -4.956,-4.918 -9.915,-9.836 -14.871,-14.754 -4.557,-4.521 -9.04,-8.901 -14.805,-11.894 -10.859,-5.636 -25.201,-11.159 -37.688,-9.061 -2.408,0.404 -4.98,1.392 -7.453,0.925 -4.143,-0.784 -0.213,-2.455 -0.099,-4.079 0.067,-0.95 0.138,-2.316 -0.018,-3.252 -0.173,-1.038 -1.409,-1.309 -1.936,-2.098 -1.304,-1.954 2.169,-3.634 3.13,-4.775 1.576,-1.877 0.949,-5.345 -1.1,-6.644 -1.647,-1.042 -4.158,0.944 -4.555,-1.093 -1.156,-5.933 3.654,-13.19 4.991,-18.864 0.651,-2.822 2.585,-7.855 4.802,-11.118 2.944,-4.33 7.158,-7.513 10.22,-11.774 2.357,-3.284 4.409,-9.557 9.481,-7.705 4.021,1.469 7.324,4.751 10.869,7.057 -0.567,-0.369 -1.133,-0.735 -1.699,-1.104 0.313,0.203 0.623,0.405 0.935,0.607 5.032,3.272 -3.107,-2.019 0,0 z"
       id="path67"
       inkscape:connector-curvature="0"
       style="fill:#f7931e" /><path
       d="m 317.582,318.731 c -10.454,0.566 -19.021,-3.762 -28.806,-6.538 -5.236,-1.486 -10.76,-2.285 -16.188,-2.593 -2.701,-0.154 -5.441,-0.208 -8.138,0.021 -3.198,0.272 -6.253,1.418 -9.5,1.2 0.517,2.518 2.074,4.813 2.753,7.312 0.695,2.54 -0.262,4.109 -0.379,6.501 -0.076,1.554 4.325,3.684 5.166,5.092 1.737,2.912 3.664,5.426 4.533,8.749 0.586,2.244 3.424,2.055 5.277,2.689 3.146,1.076 6.102,2.511 8.72,4.566 2.37,1.863 4.581,3.265 6.28,5.818 0.773,1.163 1.881,2.054 2.621,3.233 0.812,1.3 0.641,3.175 1.129,4.62 5.92,-4.774 11.318,-11.513 15.432,-17.883 4.372,-6.76 9.081,-14.946 11.1,-22.787 -3.095,0.168 -0.546,2.116 0,0 z"
       id="path69"
       inkscape:connector-curvature="0"
       style="fill:#f7931e" /><path
       d="m 248.416,192.88 c -0.446,-2.016 -9.276,-1.866 -10.769,-2.098 -4.559,-0.711 -14.717,-3.31 -17.262,1.749 -5.518,10.965 -14.143,22.168 -13.098,35.135 6.203,-8.134 12.961,-15.445 21.014,-21.855 4.021,-3.2 8.254,-6.178 12.668,-8.809 1.037,-0.618 7.702,-2.971 7.363,-4.493 0.008,0.02 0.145,0.636 0.084,0.371 -0.353,-1.588 0.109,0.49 0,0 z"
       id="path71"
       inkscape:connector-curvature="0"
       style="fill:#f7931e" /><path
       d="m 127.45,280.906 c -0.773,5.773 0.045,11.532 0.068,17.311 2.748,-2.409 5.252,-5.092 8.168,-7.306 8.657,-6.571 21.504,-10.306 32.336,-9.562 1.813,0.125 7.167,0.562 7.178,3.193 0.008,2.094 -2.494,2.274 -4.164,2.641 -5.48,1.207 -10.596,1.791 -15.805,4.103 -9.877,4.384 -17.496,12.523 -20.549,22.931 -0.648,2.219 -1.889,6.137 -0.943,8.413 0.963,2.307 1.99,4.566 3.044,6.833 2.468,5.309 5.032,10.507 8.483,15.259 27.737,38.199 82.547,51.938 124.534,29.614 4.655,-2.473 8.876,-5.615 13.308,-8.442 1.924,-1.223 -3.213,-9.967 -4.33,-11.05 -3.604,-3.498 -9.014,-5.811 -13.535,-7.81 -5.27,-2.33 -9.555,0.871 -14.492,2.628 -5.688,2.023 -11.852,3.734 -17.889,4.166 -4.168,0.298 -9.689,0.864 -13.322,-1.566 -1.363,-0.912 -3.129,-3.731 -0.71,-4.597 2.136,-0.765 4.874,-0.148 7.069,-0.051 5.547,0.247 11.336,-1.471 16.693,-2.721 3.531,-0.819 11.655,-3.352 13.098,-7.253 1.593,-4.305 -3.665,-5.576 -6.898,-3.798 -2.184,1.204 -2.867,4.207 -5.336,5.293 -1.794,0.79 -4.752,0.748 -6.188,-0.757 -1.737,-1.822 -3.049,-0.541 -3.797,1.42 -0.787,2.08 -3.914,2.235 -5.705,2.004 -2.24,-0.29 -3.805,-3.954 -6.459,-3.392 -1.175,0.249 -1.344,1.581 -2.468,1.851 -1.079,0.257 -2.272,0.391 -3.368,0.158 -2.173,-0.463 -3.361,-2.357 -5.677,-2.539 -2.202,-0.172 -4.91,0.229 -7.011,-0.481 -4.767,-1.608 -9.543,-5.13 -13.891,-7.663 -2.196,-1.281 -4.406,-2.55 -6.561,-3.899 -1.329,-0.833 -4.199,-1.737 -4.903,-3.161 -0.454,-0.924 -1.562,-3.978 0.454,-4.221 2.831,-0.346 3.785,1.062 6.107,2.197 4.826,2.359 9.172,5.533 14.282,7.345 10.909,3.868 21.846,1.945 32.996,0.298 5.306,-0.783 9.431,-2.432 14.262,-4.612 3.043,-1.374 4.632,-5.153 1.166,-7.443 -4.341,-2.871 -8.158,1.705 -12.088,3.07 -5.51,1.915 -10.507,2.363 -16.366,2.234 -6.249,-0.136 -11.616,-1.332 -17.623,-2.968 -5.445,-1.483 -10.66,-3.964 -16.18,-5.159 -3.024,-0.655 -6.355,-0.684 -9.389,-0.08 -2.617,0.522 -3.795,2.066 -6.105,3.088 -3.761,1.665 -2.986,-4.692 -0.385,-6.057 5.109,-2.683 9.461,-3.277 15.215,-2.519 5.939,0.783 11.795,2.333 17.706,3.343 6.263,1.07 12.55,1.637 18.913,1.493 3.63,-0.082 11.141,-0.514 12.602,-4.569 1.014,-2.809 0.679,-6.05 1.25,-8.971 0.432,-2.203 2.549,-4.381 4.049,-5.928 1.544,-1.591 3.649,-3.721 5.789,-4.472 0.776,-0.271 4.485,-0.532 5.129,0.207 1.312,1.5 2.486,3.284 1.224,5.193 -1.123,1.695 -4.456,1.759 -6.118,2.938 -1.531,1.087 -1.373,2.902 -0.589,4.428 0.995,1.942 3.374,1.38 5.109,1.001 10.216,-2.234 22.22,-2.555 32.406,-0.051 5.488,1.349 10.897,2.558 16.255,4.391 4.373,1.495 8.584,3.565 12.939,5.039 2.609,0.882 2.076,-1.899 0.867,-3.096 -1.971,-1.956 -3.94,-3.909 -5.91,-5.864 -3.613,-3.583 -6.898,-6.84 -11.114,-9.633 -9.983,-6.618 -19.912,-11.681 -31.938,-13.417 -6.096,-0.881 -12.242,-0.686 -18.382,-0.661 -5.429,0.022 -9.524,0.371 -13.597,-3.67 -3.646,-3.617 -3.627,-11.072 -0.117,-14.61 1.053,-1.063 2.728,-3.09 3.326,-4.466 0.874,-2.005 0.212,-5.568 0.283,-7.753 0.184,-5.562 0.795,-10.548 2.371,-15.917 1.531,-5.224 4.323,-9.859 7.433,-14.33 2.926,-4.211 6.083,-8.229 9.388,-12.118 1.732,-2.04 3.723,-3.836 5.637,-5.7 0.857,-0.836 4.398,-2.363 2.512,-3.523 -3.709,-2.28 -10.566,1.941 -13.758,3.905 -4.159,2.559 -9.535,5.486 -12.975,8.952 -7.018,7.075 -15.512,12.957 -20.283,21.964 -2.568,4.846 -5.053,8.834 -4.199,14.466 0.755,5.008 3.95,8.981 4.829,13.824 0.401,2.212 0.766,4.621 -0.813,6.19 -0.781,0.781 -3.279,-0.797 -3.81,-1.323 -3.43,-3.396 -5.55,-7.359 -7.224,-11.891 -3.762,-10.21 -5.24,-20.542 -3.812,-31.436 0.732,-5.597 3.48,-11.626 5.721,-16.766 2.134,-4.898 5.229,-9.207 7.547,-13.889 -11.329,1.791 -21.996,4.275 -32.258,9.499 -5.083,2.586 -10.156,5.7 -14.561,9.322 -3.637,2.993 -6.857,6.382 -10.475,9.38 -8.086,6.698 -14.044,17.308 -18.334,26.741 -4.854,10.681 -9.39,22.95 -9.342,34.835 -0.383,2.854 -0.025,-6.053 0,0 z m 75.455,15.902 c -1.572,-2.595 1.704,-2.768 3.504,-3.326 2.404,-0.744 4.834,-1.663 7.096,-2.759 1.721,-0.834 9.426,-7.794 9.99,-2.876 0.971,8.453 -14.916,12.545 -20.59,8.961 -0.507,-0.836 0.505,0.318 0,0 z m -11.244,-13.594 c -0.537,-3.894 4.511,-6.879 7.143,-9.303 2.445,-2.255 7.129,-6.229 10.762,-4.968 2.537,0.88 7.557,4.093 4.942,7.274 -1.272,1.549 -2.116,0.757 -0.154,2.467 0.93,0.811 1.966,1.934 2.062,3.228 0.207,2.823 -6.672,3.159 -8.467,4.413 -2.241,1.566 -5.549,4.368 -8.333,4.66 -4.106,0.431 1.581,-5.616 1.915,-6.035 1.841,-2.322 4.629,-4.204 6.197,-6.58 -3.146,0.297 -5.545,1.398 -8.352,2.688 -2.367,1.092 -5.34,4.277 -7.715,2.156 -0.068,-0.491 0.481,0.43 0,0 z"
       id="path73"
       inkscape:connector-curvature="0"
       style="fill:#f7931e" /></g></svg>