<?xml version="1.0" encoding="UTF-8" standalone="no"?>
<!-- Created with Inkscape (http://www.inkscape.org/) -->

<svg
   xmlns:dc="http://purl.org/dc/elements/1.1/"
   xmlns:cc="http://creativecommons.org/ns#"
   xmlns:rdf="http://www.w3.org/1999/02/22-rdf-syntax-ns#"
   xmlns:svg="http://www.w3.org/2000/svg"
   xmlns="http://www.w3.org/2000/svg"
   xmlns:sodipodi="http://sodipodi.sourceforge.net/DTD/sodipodi-0.dtd"
   xmlns:inkscape="http://www.inkscape.org/namespaces/inkscape"
   width="320"
   height="240"
   viewBox="0 0 320 240"
   id="svg2"
   version="1.1"
   inkscape:version="0.91 r13725"
   sodipodi:docname="team.svg">
  <defs
     id="defs4">
    <clipPath
       clipPathUnits="userSpaceOnUse"
       id="clipPath4246">
      <rect
         style="opacity:1;fill:#666666;fill-opacity:1;stroke:none;stroke-opacity:1"
         id="rect4248"
         width="327.28943"
         height="242.43661"
         x="7.8353885e-08"
         y="812.95599" />
    </clipPath>
    <clipPath
       clipPathUnits="userSpaceOnUse"
       id="clipPath4315">
      <rect
         style="opacity:1;fill:#666666;fill-opacity:1;stroke:none;stroke-opacity:1"
         id="rect4317"
         width="321.22852"
         height="240.41631"
         x="1.0101526"
         y="811.94586" />
    </clipPath>
  </defs>
  <sodipodi:namedview
     id="base"
     pagecolor="#ffffff"
     bordercolor="#666666"
     borderopacity="1.0"
     inkscape:pageopacity="0.0"
     inkscape:pageshadow="2"
     inkscape:zoom="0.98994949"
     inkscape:cx="99.009161"
     inkscape:cy="144.87745"
     inkscape:document-units="px"
     inkscape:current-layer="layer1"
     showgrid="false"
     units="px"
     inkscape:window-width="1329"
     inkscape:window-height="750"
     inkscape:window-x="37"
     inkscape:window-y="18"
     inkscape:window-maximized="1" />
  <metadata
     id="metadata7">
    <rdf:RDF>
      <cc:Work
         rdf:about="">
        <dc:format>image/svg+xml</dc:format>
        <dc:type
           rdf:resource="http://purl.org/dc/dcmitype/StillImage" />
        <dc:title></dc:title>
      </cc:Work>
    </rdf:RDF>
  </metadata>
  <g
     inkscape:label="Ebene 1"
     inkscape:groupmode="layer"
     id="layer1"
     transform="translate(0,-812.36216)">
    <g
       id="g4299"
       clip-path="url(#clipPath4315)">
      <ellipse
         ry="35.860416"
         rx="30.809652"
         cy="964.56268"
         cx="284.793"
         id="path3336-3-0"
         style="opacity:1;fill:#4d4d4d;fill-opacity:1;stroke:none;stroke-opacity:1" />
      <path
         transform="matrix(-0.99999692,0.00248185,-0.00248185,-0.99999692,0,0)"
         d="m -208.02902,-1043.0389 a 74.246216,45.961941 0 0 1 -37.12311,39.8042 74.246216,45.961941 0 0 1 -74.24622,0 74.246216,45.961941 0 0 1 -37.1231,-39.8042"
         sodipodi:open="true"
         sodipodi:end="3.1415927"
         sodipodi:start="0"
         sodipodi:ry="45.961941"
         sodipodi:rx="74.246216"
         sodipodi:cy="-1043.0389"
         sodipodi:cx="-282.27524"
         sodipodi:type="arc"
         id="path3338-6-9"
         style="opacity:1;fill:#4d4d4d;fill-opacity:1;stroke:none;stroke-opacity:1" />
      <ellipse
         ry="35.860416"
         rx="30.809652"
         cy="985.77576"
         cx="37.305607"
         id="path3336-35-2"
         style="opacity:1;fill:#333333;fill-opacity:1;stroke:none;stroke-opacity:1" />
      <path
         transform="matrix(-0.99999692,0.00248185,-0.00248185,-0.99999692,0,0)"
         d="m 39.510208,-1063.6379 a 74.246216,45.961941 0 0 1 -37.1231088,39.8042 74.246216,45.961941 0 0 1 -74.2462172,0 74.246216,45.961941 0 0 1 -37.123102,-39.8042"
         sodipodi:open="true"
         sodipodi:end="3.1415927"
         sodipodi:start="0"
         sodipodi:ry="45.961941"
         sodipodi:rx="74.246216"
         sodipodi:cy="-1063.6379"
         sodipodi:cx="-34.736008"
         sodipodi:type="arc"
         id="path3338-62-7"
         style="opacity:1;fill:#333333;fill-opacity:1;stroke:none;stroke-opacity:1" />
      <ellipse
         ry="35.860416"
         rx="30.809652"
         cy="970.6236"
         cx="124.17871"
         id="path3336-7-9"
         style="opacity:1;fill:#666666;fill-opacity:1;stroke:none;stroke-opacity:1" />
      <path
         transform="matrix(-0.99999692,0.00248185,-0.00248185,-0.99999692,0,0)"
         d="m -47.40023,-1048.7013 a 74.246216,45.961941 0 0 1 -37.123109,39.8042 74.246216,45.961941 0 0 1 -74.246221,0 74.246216,45.961941 0 0 1 -37.1231,-39.8042"
         sodipodi:open="true"
         sodipodi:end="3.1415927"
         sodipodi:start="0"
         sodipodi:ry="45.961941"
         sodipodi:rx="74.246216"
         sodipodi:cy="-1048.7013"
         sodipodi:cx="-121.64645"
         sodipodi:type="arc"
         id="path3338-5-1"
         style="opacity:1;fill:#666666;fill-opacity:1;stroke:none;stroke-opacity:1" />
      <ellipse
         ry="35.860416"
         rx="30.809652"
         cy="979.04486"
         cx="80.307129"
         id="path3336"
         style="opacity:1;fill:#000000;fill-opacity:1;stroke:none;stroke-opacity:1" />
      <path
         transform="matrix(-0.99999692,0.00248185,-0.00248185,-0.99999692,0,0)"
         d="m -3.5078506,-1057.0137 a 74.246216,45.961941 0 0 1 -37.1231094,39.8042 74.246216,45.961941 0 0 1 -74.24622,0 74.246216,45.961941 0 0 1 -37.1231,-39.8042"
         sodipodi:open="true"
         sodipodi:end="3.1415927"
         sodipodi:start="0"
         sodipodi:ry="45.961941"
         sodipodi:rx="74.246216"
         sodipodi:cy="-1057.0137"
         sodipodi:cx="-77.754066"
         sodipodi:type="arc"
         id="path3338"
         style="opacity:1;fill:#000000;fill-opacity:1;stroke:none;stroke-opacity:1" />
      <ellipse
         ry="35.860416"
         rx="30.809652"
         cy="991.07605"
         cx="152.46301"
         id="path3336-3"
         style="opacity:1;fill:#4d4d4d;fill-opacity:1;stroke:none;stroke-opacity:1" />
      <path
         transform="matrix(-0.99999692,0.00248185,-0.00248185,-0.99999692,0,0)"
         d="m -75.633698,-1069.2239 a 74.246216,45.961941 0 0 1 -37.123112,39.8042 74.246216,45.961941 0 0 1 -74.24621,0 74.246216,45.961941 0 0 1 -37.12311,-39.8042"
         sodipodi:open="true"
         sodipodi:end="3.1415927"
         sodipodi:start="0"
         sodipodi:ry="45.961941"
         sodipodi:rx="74.246216"
         sodipodi:cy="-1069.2239"
         sodipodi:cx="-149.87991"
         sodipodi:type="arc"
         id="path3338-6"
         style="opacity:1;fill:#4d4d4d;fill-opacity:1;stroke:none;stroke-opacity:1" />
      <ellipse
         ry="35.860416"
         rx="30.809652"
         cy="976.9339"
         cx="212.062"
         id="path3336-7"
         style="opacity:1;fill:#1a1a1a;fill-opacity:1;stroke:none;stroke-opacity:1" />
      <path
         transform="matrix(-0.99999692,0.00248185,-0.00248185,-0.99999692,0,0)"
         d="m -135.26761,-1055.2297 a 74.246216,45.961941 0 0 1 -37.12311,39.8042 74.246216,45.961941 0 0 1 -74.24621,0 74.246216,45.961941 0 0 1 -37.12311,-39.8042"
         sodipodi:open="true"
         sodipodi:end="3.1415927"
         sodipodi:start="0"
         sodipodi:ry="45.961941"
         sodipodi:rx="74.246216"
         sodipodi:cy="-1055.2297"
         sodipodi:cx="-209.51382"
         sodipodi:type="arc"
         id="path3338-5"
         style="opacity:1;fill:#1a1a1a;fill-opacity:1;stroke:none;stroke-opacity:1" />
      <ellipse
         ry="35.860416"
         rx="30.809652"
         cy="989.05566"
         cx="269.64072"
         id="path3336-35"
         style="opacity:1;fill:#333333;fill-opacity:1;stroke:none;stroke-opacity:1" />
      <path
         transform="matrix(-0.99999692,0.00248185,-0.00248185,-0.99999692,0,0)"
         d="m -192.81598,-1067.4944 a 74.246216,45.961941 0 0 1 -37.12311,39.8042 74.246216,45.961941 0 0 1 -74.24621,0 74.246216,45.961941 0 0 1 -37.12311,-39.8042"
         sodipodi:open="true"
         sodipodi:end="3.1415927"
         sodipodi:start="0"
         sodipodi:ry="45.961941"
         sodipodi:rx="74.246216"
         sodipodi:cy="-1067.4944"
         sodipodi:cx="-267.06219"
         sodipodi:type="arc"
         id="path3338-62"
         style="opacity:1;fill:#333333;fill-opacity:1;stroke:none;stroke-opacity:1" />
    </g>
  </g>
</svg>
